<?xml version="1.0" encoding="UTF-8"?>
<svg data-name="Layer 1" xmlns="http://www.w3.org/2000/svg" viewBox="0 0 600 600">
  <polygon points="90.54 446.94 112.59 493.51 122.69 519.11 144 522 168 508 174.11 476.81 190.77 507.81 201 510 208.5 483.5 246.66 505.93 255 497 258.68 479.07 286.91 495.77 292 471 275 439 258.68 425.22 246.66 416.14 255.43 404.87 296.09 424.88 318 455 307.76 502.45 313.08 522 349.03 486.73 356 489 368 509 396.23 479.07 412 511 452.32 466.03 447.08 441.55 429.35 444.65 407.5 461.5 396.5 439.5 358.1 457.49 342.77 446.94 355.5 423.5 402.5 407.5 375.43 365.85 317.17 346.68 261.5 346.5 221.17 365.85 204.12 388.73 191.22 364 162.44 359.86 139.5 378.5 143.62 405.45 156.04 424.88 128 459 105 437 111.18 408.05 100.7 381.32 82.35 365.85 60.89 385.84 65.69 412.91 90.54 446.94" style="fill: #fff; stroke-width: 0px;"/>
  <polygon points="155.76 421.76 128 459 105 437 110.02 412.91 109 396 95.36 375.48 82.35 365.85 69 369 60.89 334.98 67.15 293.04 77.33 245.32 100 190 109.41 190 168 125 234 79 238 86 279 77 371 83 458 119 451 134 497 193 524 272 535 323 515 328 515.76 459 505 482 453.5 483.5 447.08 441.55 432.5 442.5 407.5 461.5 396.5 439.5 358.1 457.49 342.5 442.5 355.5 423.5 402.5 407.5 375.43 365.85 326.5 347.5 261.5 346.5 215.9 374.31 203.5 385.5 206.02 398.66 248.65 400.72 246.66 416.14 264.18 431.86 250.5 452.5 228.5 439.5 220.7 444.65 208.5 465.84 185.97 449.72 182.11 425.22 200 412 200 374 172 361 147 370 139 397 155.76 421.76" style="fill: #f4db5c; stroke-width: 0px;"/>
  <g>
    <path d="m235.49,71.06c1.81,1.95,3.68,3.96,5.91,6.36,2.48-.47,5.21-.83,7.86-1.51,26.31-6.71,53-6.59,79.77-4.37,8.74.73,17.45,1.98,26.15,3.16,26.76,3.62,51.9,12.49,76.3,23.73,5.79,2.67,11.86,4.76,17.6,7.53,9.51,4.58,15.57,12,17.82,22.87-2.66,1.92-5.11,3.69-7.99,5.77,1.19,1.62,1.91,3.05,3.03,4.02,18.44,16.03,31.44,36.1,42.04,57.74,6.31,12.88,12.03,26.13,16.92,39.61,5.98,16.5,11.31,33.27,15.98,50.19,3.17,11.49,4.85,23.41,6.93,35.19.47,2.65.29,5.64-.47,8.22-1.74,5.95-7.48,8.26-13.21,5.7-2.53-1.13-5.04-2.31-7.51-3.45-4.1,2.35-3.68,6.31-3.68,9.65.01,9.18.51,18.36.83,27.54.61,17.55,1.42,35.09,1.77,52.65.23,11.57,0,23.16-.41,34.73-.17,4.73-1.11,9.46-2.08,14.11-1.88,9.02-7.3,14.99-16.33,17.21-4.62,1.14-9.34,2.22-14.06,2.44-5.96.28-12-.04-17.95-.63-10.11-1-19.93.76-29.71,2.72-2.13.43-4.44,1.92-5.82,3.62-2.5,3.07-4.36,6.67-6.49,10.04-1.28,2.02-2.46,4.12-3.88,6.04-3.94,5.34-14.92,7.3-19.32-.74-2.11-3.84-4.2-7.7-6.18-11.61-1.21-2.38-2.19-4.87-3.51-7.84-5.28,3.64-8.1,8.58-11.86,12.61-2.18,2.33-3.94,5.05-6.16,7.33-5.52,5.7-9.78,5.32-14.63-1.35-1.87-2.57-3.37-5.42-4.92-8.2-1.54-2.76-2.94-5.59-4.71-8.97-3.84.91-6.44,3.35-8.75,5.83-4.34,4.67-8.42,9.59-12.44,14.55-2.51,3.09-4.61,6.52-7.08,9.65-7.39,9.39-13.44,8.79-18.74-1.67-1.86-3.67-2.57-7.43-2.48-11.54.25-12.44,1.54-24.69,5.45-36.58,1.24-3.78,2.41-7.58,3.59-11.29-5.04-13.74-9.96-27.45-22.59-35.97-11.12-7.49-21.96-16.05-36.62-16.52-.68,1.78-1.23,3.22-1.7,4.46,3.95,4.43,7.62,8.6,11.37,12.72.78.86,1.7,1.86,2.74,2.17,14.76,4.31,20.92,16.48,26.03,29.15,3.61,8.96,4,18.68,3.69,28.31-.15,4.52-1.74,8.57-4.56,12.13-3.71,4.68-7.84,4.34-10.83.23-4.25-5.86-9.9-10.01-16.06-13.47-3.12,2.63-2,5.53-2.01,8.14-.03,6.28-2.24,11.69-6.27,16.42-2.61,3.06-5.91,4.33-9.62,2.54-5-2.42-10.02-4.93-14.64-8-4.64-3.08-8.74-6.97-13.21-10.32-1.48-1.11-3.37-1.66-5.75-2.78-.64,3.54-1.11,6.23-1.61,8.91-.52,2.74-.81,5.56-1.65,8.21-3.21,10.15-11.72,12.3-18.97,4.79-1.92-1.99-3.48-4.35-5.12-6.6-2.55-3.51-5.02-7.08-8.28-11.68-1.34,3.03-2.33,4.95-3.05,6.98-1.06,3-1.71,6.15-2.92,9.08-2.55,6.14-6.51,10.96-13.3,12.78-.76.2-1.5.57-2.19.98-13,7.67-25.28,4.07-37.28-2.5-1.64-.9-3.19-2.61-3.95-4.32-1.62-3.6-3.3-7.35-3.87-11.2-1.27-8.43-4.07-15.99-8.67-23.27-7.24-11.46-13.91-23.31-17.18-36.73-.52-2.13-2.08-4.34-3.77-5.81-10.26-8.93-16.15-20.69-21.64-32.72-5.32-11.65-4.74-23.22.97-34.59,1.07-2.12,2.28-4.17,3.56-6.5-5.66-17.99-8.1-36.49-7.86-55.35.05-3.99.26-7.99.76-11.94.3-2.34.6-5.48,2.14-6.7,5.47-4.34,5.11-10.64,6.16-16.31,4.22-22.82,10.39-45.09,17.53-67.14,3.12-9.64,8.6-17.88,14.83-26.55,2.57.83,5.07,1.64,8.03,2.6,4.43-6.43,8.95-12.98,13.45-19.54,6.58-9.58,14.21-18.25,22.47-26.43,17.92-17.75,36.84-34.28,57.71-48.52,4.94-3.37,9.76-6.99,14.35-10.83,5.97-5,12.51-8.49,21.77-9.35Zm-160.29,204.97c2.71.5,3.11-1.88,4.14-3.39,6.76-9.85,13.44-19.76,20.25-29.58,3.15-4.55,6.53-8.94,9.82-13.42-4.11-8.61-4.71-18.16-11.1-25.74-5.18,4.85-6.86,11.15-8.71,17.08-4.98,15.97-9.47,32.1-13.96,48.22-.61,2.2-.62,4.44-.64,6.81m265.94-91.26c10.17,6.86,19.44,11.25,28.98,15.16,11.43,4.68,22.79,9.53,34.2,14.23,3.42,1.41,6.29,3.33,8.33,6.51,3.45,5.36,4.73,10.82,2.15,17-3.84,9.2-7.48,18.47-11.05,27.78-1.09,2.85-1.66,5.9-2.63,9.44,2.71.68,4.53,1.26,6.4,1.59,3.53.61,7.2.67,10.61,1.66,13.78,3.99,27.58,7.94,41.18,12.48,20.05,6.7,40.04,13.6,59.16,22.78,2.86,1.37,5.9,2.6,9.59-.3-.61-6.38-2.24-12.88-4.23-19.26-4.88-15.62-9.72-31.25-14.98-46.74-8.12-23.88-18.37-46.82-31.76-68.26-9.13-14.62-19.89-27.85-33.65-39.19-34.54,12.85-68.83,25.74-102.31,45.15Zm-84.86-16.47c5.28.44,10.02.8,14.76,1.24,13.51,1.25,27.02,2.73,39.95,6.93,4.73,1.54,8.17.93,12.28-1.44,20.05-11.54,40.62-22.06,62.26-30.36,17.85-6.85,35.75-13.58,53.57-20.52,2.28-.89,5.89-.79,5.6-5.02-38.45-20.58-79.31-32.62-123.07-34.62-24.56-1.12-66.14-.85-76.88,4.97.05,7.17,9.35,71.74,11.53,78.8Zm-5.34,76.04c-.25-4.84-.56-9.54-.74-14.24-.75-19.51-2.94-38.87-6.01-58.15-2.94-18.46-6.43-36.85-7.59-55.58-.42-6.73-1.79-13.4-2.8-20.09-.18-1.16-.69-2.28-1.15-3.37-1.29-3.03-4.14-4.09-6.77-2.28-3.61,2.48-7.03,5.23-10.57,7.83-18.32,13.44-36.62,26.87-53.68,41.96-19.92,17.62-35.74,38.41-50.24,60.63,2.44,5.85,3.46,12.12,7.25,16.69,6.01-5.6,11.53-10.73,17.04-15.89,5.52-5.17,11.35-9.83,19.15-12.45,2.05,2.09,4.39,3.75,5.73,6.01,3.04,5.12,5.86,10.42,8.28,15.86,3.39,7.64,6.17,15.55,9.52,23.22,2.35,5.39,4.53,10.94,8.11,15.88,20.51-1.6,40.71-3.17,60.91-4.8,1.1-.09,2.16-.73,3.57-1.24Zm89.25,100.83c3.46-4.29,6.72-7.8,9.38-11.72,6.26-9.23,12.39-18.55,18.29-28.01,5.26-8.43,11.13-16.48,14.66-25.96,5.29-14.18,11.07-28.18,16.6-42.27.98-2.5,1.78-5.08,2.9-8.31-5.83-2.81-10.99-5.83-16.52-7.86-12.38-4.55-24.25-10.1-35.87-16.32-5.25-2.81-10.82-5.19-16.47-7.06-22.36-7.43-45.28-12.37-68.8-14.3-1.76-.14-3.59.53-5.47.84,1.02,10.23,2.1,19.72,2.89,29.24.81,9.83,1.34,19.68,2.03,30.01,4.54,0,8.47.37,12.31-.07,9.43-1.1,18.22,1.41,26.88,4.45,2.05.72,4.08,2.51,5.34,4.33,4.41,6.38,6.82,13.59,6.71,21.35-.19,13.54-.72,27.07-1.15,40.6-.25,7.85-2.1,15.71-.45,23.75,8.78,2.4,17.18,4.7,26.73,7.31Zm55.68-56.49c-9.56,22.7-25.34,40.41-37.57,60.51,10.55,6.03,20.51,12.17,27.59,21.45,7.18,9.41,13.33,19.61,20.08,29.69,2.95-.9,5.76-1.37,8.2-2.57,16.07-7.89,32.39-15.35,47.99-24.09,15.13-8.48,26.62-21.45,37.29-34.9,5.04-6.35,3.53-12.36-2.65-17.62-5.04-4.29-11.2-6.01-17.15-8.09-20.28-7.09-40.64-13.97-61.04-20.7-7.11-2.34-14.36-4.54-22.74-3.68Zm-3.38,114.92c-4.17-9.56-9.36-18.56-17.48-25.08-14.38-11.56-14.62-11.24-33.24-18.11-2.99-1.1-5.89-2.49-8.91-3.49-3.77-1.26-7.56-2.7-11.46-3.28-8.29-1.23-16.64-2.13-24.99-2.86-13.75-1.2-27.4.51-40.01,5.66-17.52,7.15-32.11,19.27-46.67,31.14-.9.73-1.29,3.07-.83,4.23.44,1.1,2.3,2.3,3.55,2.32,7.99.11,15.98-.31,23.96-.13,10.43.23,20.9,1.45,30.33,6.02,8.95,4.33,17.48,9.62,25.87,15,10.3,6.62,18.14,15.53,22.84,27.03.71,1.75,2,3.26,3.07,4.94,3.54-2.85,6.67-5.29,9.72-7.83,3.82-3.17,8.56-.49,12.67-1.75,1.88-2.85,3.88-5.37,5.34-8.18,3.94-7.58,10.15-12.04,18.21-14.4,5.35-1.57,10.65-3.37,15.89-5.31,4.02-1.48,8.4-2.31,12.15-5.91Zm-36.7,48.85c3.86-2.67,6.68-4.87,9.72-6.66,5.83-3.44,11.6-7.08,17.75-9.86,9.67-4.38,14.55-2.55,19.82,6.49,1.75,3,3.41,6.06,5.47,9.75,4.16-2.8,7.76-5.16,11.29-7.62,6.3-4.39,13.22-7.28,20.69-9.03,3.99-.93,6.99.16,9.49,3.28,4.13,5.16,6.01,11.13,6.71,17.61.67,6.24,1.64,12.43,3.17,18.58,8.31.71,15.85,2.06,23.34,1.85,17.94-.5,23.39-5.99,25.21-22.07.13-1.18.04-2.39.07-3.58.46-15.93,1.18-31.85,1.31-47.78.13-15.55-.29-31.1-.6-46.64-.03-1.69-.92-3.36-1.6-5.72-4.99,3.14-7.88,6.95-11.13,10.41-8.75,9.34-18.03,18.13-29.23,24.51-9.01,5.13-18.1,10.14-27.36,14.78-8.19,4.1-16.45,8.26-25.07,11.26-15.41,5.38-31.03,10.25-46.76,14.61-5.81,1.61-10.21,4-13.15,9.21-1.75,3.09-3.71,6.07-5.7,9.29,2.1,2.35,3.92,4.38,6.56,7.33Zm-53.62-191.69c-7.86-2.86-15.21-3.59-22.92-2.18-4.68.86-9.54.81-14.33,1.02-18.34.79-36.69,1.43-55.03,2.31-6.3.3-12.6,1.05-18.93,3.38,3.07,12.63,5.39,25.03,12.44,36.16,3.28-1.16,5.84-2.2,8.48-2.97,6.77-1.97,8.93-1.26,13.05,4.9,2.43,3.64,4.59,7.5,6.41,11.48,3.31,7.25,6.25,14.68,9.41,22.01,1.07,2.49,2.35,4.89,3.65,7.59,6.28-1.81,11.91-3.76,17.69-5.01,5.84-1.27,11.81-1.9,17.74-2.75,5.81-.83,11.85.79,17.34-.95,3.79-16.69,6.93-63.1,5.01-74.99Zm-209.23,54.89c2.26-3.52,3.79-5.82,5.24-8.16,4.82-7.79,9.52-15.67,14.47-23.38,2.56-3.98,5.27-4.41,8.93-1.38,3.36,2.78,6.82,5.66,9.4,9.12,6.43,8.61,12.42,17.54,18.52,26.4,1.98,2.88,3.04,6.52,6.78,7.74,6.01-3.34,12.09-6.38,17.8-9.98,5.58-3.51,12.9-4.27,17.34-10.67-1.95-5.63-3.84-11.27-5.85-16.87-4.16-11.6-8.23-23.24-12.61-34.76-4.95-13.01-10.05-25.97-15.35-38.84-3.58-8.69-7.53-6.77-12.2-1.71-21.95,23.76-42.53,48.56-58.7,76.74-2.36,4.1-5.13,8-6.2,13.13,2.64,2.99,5.2,5.99,7.88,8.88,1.02,1.1,2.32,1.94,4.55,3.75Zm274.09,185.86c1.91-1.82,3.76-3.29,5.26-5.06,4.65-5.46,9.07-11.12,13.8-16.51,2.61-2.98,5.52-5.75,8.58-8.27,2.33-1.92,5.36-.99,7.13,1.67,2.94,4.41,4.28,9.32,5.06,14.54.68,4.52.39,9.5,3.6,12.96,4.8.46,6.3-2.75,7.77-5.39,6.13-10.99,14.66-19.8,24.29-27.69,1.52-1.25,2.9-2.65,4.75-4.36-.83-4.27-1.47-8.57-2.54-12.76-.88-3.48-4.04-5.1-7.52-3.63-4.01,1.69-7.87,3.81-11.58,6.09-3.04,1.87-5.87,4.13-8.62,6.43-3,2.51-5.79,5.27-8.82,8.07-6.52-6.5-6.11-15.8-10.62-22.56-5.55-1.33-9.62,1.56-13.71,3.83-4.52,2.51-8.77,5.51-13.1,8.35-3.89,2.55-7.16,6.1-11.47,7.82-2.4-1.91-4.29-3.36-6.11-4.88-2.75-2.3-5.16-5.17-8.22-6.88-8.4-4.71-12.96-2.19-16.09,3.81-2.39,4.58-4.83,9.19-6.62,14.02-4.73,12.72-8.67,25.67-8.97,39.41-.03,1.53.05,3.21,2.65,3.04,9.74-13,17.69-28.17,34.08-34.24,9.86,4.56,9.79,15.84,17.01,22.22ZM85.05,360.68c12,7.16,15.74,19.77,22.42,28.06,9.84-.4,18.09-.73,26.42-1.07,6.3-24.68,9.49-26.26,26.44-35.24-.55-1.34-.92-2.85-1.71-4.1-7.43-11.82-14.83-23.67-22.47-35.36-2.83-4.33-6.17-8.34-9.48-12.33-1.44-1.74-2.94-3.89-6.67-3.08-12.26,19.76-25.51,39.59-34.96,63.12Zm10.31,87.03c2.43,10.82,7.09,19.21,11.51,27.61,5.72,10.87,13.31,20.77,15.81,33.23.67,3.32,3.43,5.14,7.06,5.38,7.25.48,14.16-1.39,21.22-2.5,7.08-1.12,10.48-4.94,11.93-11.38.35-1.55.8-3.09,1.07-4.65,2.56-14.93,6.07-29.6,12.18-43.54.95-2.18,1.93-4.44,2.29-6.75.34-2.18-.12-4.48-.2-6.28-6.28-2.43-11.74-4.54-17.96-6.94-1.71,1.81-4.12,3.88-5.94,6.39-4.19,5.79-8.02,11.85-12.13,17.7-2.5,3.57-5.07,7.13-7.95,10.39-2.03,2.3-5.29,2.36-7.5.24-4.3-4.11-8.43-8.41-12.52-12.74-2.96-3.13-4.9-7.31-9.72-9.27-2.61.9-5.54,1.9-9.14,3.14Zm131.2-2.67c-2.04,2.92-4.11,5.31-5.54,8.03-2.39,4.58-4.29,9.42-6.59,14.05-.79,1.59-2.17,2.9-3.52,4.64-7.22-6.3-12.56-14.33-22.94-14.78-1.08,2.54-1.93,4.74-2.95,6.87-5.17,10.79-6.44,21.15,2.88,30.63,2.42,2.46,2.54,6.89,6.72,7.97,3.58-.7,5.29-3.19,5.99-6.54.9-4.29,1.48-8.66,2.69-12.85.72-2.46,2.41-4.64,3.67-6.96,5.74,1.01,9.31,4.36,13.22,6.96,5.3,3.53,10.34,7.45,15.63,11.01,3.27,2.21,6.65,4.47,11.18,3.5,8.54-7.75,4.16-19.48,7.62-28.3,1.27-.36,1.74-.67,1.98-.54,9.47,4.87,16.91,12.63,26.22,19.17,1.21-2.14,2.63-3.67,2.94-5.39,1.06-5.89,2.32-12.27-.96-17.51-3.96-6.33-8.75-12.34-14.11-17.54-3.7-3.59-9.19-1.59-11.87,3.33-1.51,2.78-2.47,5.86-3.89,8.7-.64,1.28-1.81,2.29-3.3,4.12-6.21-9.53-14.4-15.23-25.08-18.54Zm-55.78-92.56c2.16.74,3.63,1.51,5.17,1.71,10.6,1.42,18.1,7.54,24.28,15.75,1.12,1.49,2.36,2.91,3.55,4.36,11.12-8.59,21.76-16.8,32.78-25.31-2.63-6.62-5.13-13.26-7.9-19.78-2.72-6.38-3.24-13.89-9.28-19.34-18.44,7.98-36.78,15.53-54.55,24.37-.91.45-1.39,1.76-2.38,3.09,2.85,5.18,5.7,10.35,8.34,15.14Zm27.43,38.6c0-.99-.06-2.99.01-4.98.27-7.72-3.96-12.73-10.21-16.21-2.35-1.31-5.22-1.87-7.92-2.32-3.52-.6-7.24-.29-10.65-1.2-5.83-1.55-10.2.56-13.89,4.59-7.74,8.48-9.87,18.88-9.5,29.94.06,1.87.86,4.08,2.07,5.49,7.49,8.72,16.25,15.29,28.47,15.37,4.62.03,8.59-1.42,11.7-4.95,6.24-7.07,10.85-14.8,9.92-25.72Zm42.3,15.59c-10.76-1.13-20.52-1.94-30.61-.26-.84,2.02-1.83,3.76-2.3,5.62-2.13,8.37-6.48,15.57-13,20.93-4.84,3.98-5.74,8.01-3.9,13.32,5.36,3.71,10.49,7.26,16.19,11.2,1.47-2.6,2.5-4.67,3.76-6.6,2.6-3.98,5.11-8.05,8.04-11.79,3.42-4.35,6.81-5.13,11.41-2.5,5.45,3.11,11.13,5.82,16.7,8.7,3.84-4.82,7.42-9.3,11.33-14.2-2.94-1.93-5.05-3.88-7.54-4.84-6.44-2.47-9.03-7.32-9.6-13.73-.14-1.55-.26-3.11-.49-5.85Zm-134.06,3.48c-.52-15.28-6.34-25.36-15.69-33.63-2.98-2.63-6.67-3.18-10.03-1.22-5.23,3.06-9.85,7.03-11.6,13.16-4.5,15.73-1.18,26.04,9.07,36.04,3.55,3.46,7.87,5.38,12.83,5.83,5.83.53,9.28-1.07,11.41-6.51,2.01-5.13,3.14-10.6,4.01-13.66Zm40.83,10.45c-3.21-5.55-5.87-9.95-8.33-14.46-1.45-2.67-3.68-4.25-6.49-4.71-6.29-1.03-12.57-1.46-17.45,2.42,0,6.31.32,11.82-.09,17.27-.41,5.45-1.53,10.85-2.33,16.16q6.11,8.64,14.22,12.43c6.72-9.56,13.5-19.21,20.46-29.11Zm-75.39-59.24c.38-.12.88-.12,1.11-.38.76-.82,1.96-1.69,2.03-2.62.67-8.53,4.47-15.96,7.92-23.53,1.45-3.17,2.83-6.37,4.28-9.65-4.55-5.12-8.67-9.91-12.98-14.53-1.28-1.38-2.9-2.81-5.14-1.59-3.11,14.77-1.69,41.61,2.77,52.31Z" style="stroke-width: 0px;"/>
    <path d="m75,276s0,0,0,0" style="fill: #fff; stroke-width: 0px;"/>
    <path d="m181.1,408.58c.21,3.8-1.95,7.26-5.34,8.42-3.41,1.17-6.71.18-8.6-2.44-2.75-3.81-5.01-8.09-6.81-12.44-1.32-3.2.24-6.42,2.9-8.43,1.39-1.05,3.81-1.73,5.44-1.31,5.7,1.48,12.08,10.19,12.41,16.2Z" style="stroke-width: 0px;"/>
    <path d="m97.13,417.14c.18,2.31-1.32,4.92-4.28,6.74-2.49,1.52-5.75,1.31-7.66-.73-3.6-3.87-5.85-8.49-6.54-13.72-.37-2.82.18-5.62,2.72-7.43,2.52-1.8,7.41-1.23,9.96,1.25,3.53,3.45,5.57,7.66,5.8,13.89Z" style="stroke-width: 0px;"/>
  </g>
</svg>