<?xml version="1.0" encoding="UTF-8"?>
<svg data-name="Layer 1" xmlns="http://www.w3.org/2000/svg" viewBox="0 0 600 600">
  <polygon points="193.37 554.38 207.5 552.5 225.5 525.5 240.48 545.58 251.35 515.58 270.98 541.64 284.5 530.5 278.5 490.5 261.01 490.5 249.94 500.33 233.88 478.67 212.75 508.24 185.58 501.44 180.7 519.66 163.5 515.35 179.5 472.5 204.23 423.95 240.36 421.78 294.53 445.01 336.69 486.75 331.11 525.39 339.5 542.5 358.67 515.58 376.35 551.5 398.5 524.5 414.09 551.5 437 518 430.5 487.5 409.5 497.5 392.65 471.46 370.48 485.11 349.17 474.97 363.5 438.5 396.71 428.26 370.48 398.23 325.31 372.76 270.5 365.5 228.11 380.92 198.28 401.35 185.58 382.89 150.21 372.76 127.23 390.44 120.62 417.19 116.5 421.5 89.5 423.5 72.87 399.63 48.88 393.06 34.5 421.5 37.5 445.5 65.37 468.7 79.5 463.5 89.22 443.57 90.43 430.39 104.46 425.16 123.84 427.37 134.83 448.05 109.58 478.67 91.94 458.73 70.5 475.5 90.5 530.5 91.04 545.58 107.17 562.83 143.01 551.5 157.5 520.5 182.5 526.5 193.37 554.38" style="fill: #fff; stroke-width: 0px;"/>
  <polygon points="91.07 452.66 87.61 426.65 72.87 399.63 48.88 390.71 43 336 48.88 325.41 54.07 274.64 64.3 242.52 72.87 200.87 81.3 199.09 160.51 97.02 172 99 250.69 54.78 321 39 330.49 50.51 408 65 496 110 497.83 125.29 495 138 524.25 177.95 559 250 564 286 550 288.85 558.89 367.44 558.57 535.94 456.36 541.64 437 518 430.5 487.5 409.5 497.5 395.5 472.5 370.48 485.11 348.5 477.5 363.37 441.63 396.71 428.26 374.5 400.5 319.34 369.4 265.89 369.4 218.5 388.5 198.28 401.35 202.95 426.65 240.36 421.78 254.87 428.46 254.87 456.12 281.47 468.7 278.5 486.5 246.8 499.18 233.88 478.67 212.75 508.24 185.58 501.44 179.13 523.13 157.5 517.5 179.13 468.7 197 427 195 396 161 374 131 389 124 422 134.83 448.05 109.58 478.67 91.07 452.66" style="fill: #f4db5c; stroke-width: 0px;"/>
  <g>
    <path d="m164.57,88.49c2.64,1.74,4.84,3.2,7.04,4.65.83-.37,1.86-.54,2.46-1.14,8.54-8.49,18.43-15.17,29.09-20.54,15.95-8.03,32.1-15.67,48.3-23.21,18.51-8.62,38.29-12.3,58.47-14.21,3.65-.35,7.3-.67,10.92-1.16,8.23-1.11,8.86-.87,13.1,6.38.88,1.51,1.48,3.2,2,4.34,11.95,1.83,23.29,3.3,34.54,5.33,23.18,4.18,44.92,12.79,65.96,23,16.88,8.19,33.28,17.37,49.75,26.38,10.35,5.66,18.26,13.62,21.67,26.07-2.52,2.96-5.13,6.03-7.96,9.36.36,1.07.52,2.47,1.22,3.48,6.84,9.73,13.86,19.34,20.66,29.1,19.05,27.31,31.76,57.68,42.24,89.03,3.04,9.09,4.93,18.58,6.95,27.97.84,3.9.65,8.03,1,13.19-5.05-.54-9.2-.99-12.96-1.39-2.55,3.88-1.2,6.97-.33,9.94,2.72,9.3,3.26,18.86,4.43,28.41,4.23,34.66,2.08,69.55,4.65,104.29,1.62,21.81-.64,43.92-1.17,65.89-.21,8.7-.36,17.4-.75,26.09-.22,4.98,0,10.23-4.36,13.58-11.6.86-22.9,1.79-34.21,2.53-20.57,1.33-41.15,2.56-61.73,3.81-6.52.4-11.36-2.83-15.54-7.38-3.66-3.98-7.32-7.96-11.6-12.62-2.31,3.44-4.16,5.91-5.72,8.57-2.77,4.74-5.19,9.7-8.08,14.37-3.14,5.08-8.35,5.74-12.67,1.63-1.96-1.86-3.48-4.22-4.98-6.49-1.26-1.9-2.21-4.01-3.32-6.01-1.11-1.99-2.24-3.97-3.62-6.4-3.95,1.42-4.9,5.12-6.72,7.96-3.99,6.25-8.32,12.05-16.14,14.41-9.67-7.15-11.88-19-17.44-29.22-5.14,2.44-6.85,6.89-9.65,10.26-1.76,2.11-3.27,4.43-5.08,6.5-3.25,3.71-6.96,3.8-10.7.28-4.49-4.24-6.98-9.43-7.64-15.66-1.4-13.33-.8-19.14,4.72-38.4-16.51-26-38.08-46.04-70.92-53.47-2.67.8-1.54,4.37-1.62,7.44-.08,3.02,1.15,5.41,3.81,6.78,4.05,2.09,8.16,4.06,12.33,5.9,9.56,4.23,14.36,11,13.64,21.3-.44,6.34-1.95,12.67-3.62,18.83-.88,3.24-.71,6.02-.11,9.21,1.35,7.16,2.56,14.4,2.94,21.66.37,7.03-2.24,13.48-6.53,19.12-2.28,2.99-5.29,3.6-8.48,1.72-3.99-2.34-7.53-5.14-9.74-9.41-1.87-3.6-4-7.07-6.75-11.87-4.38,9.23-4.15,19.96-14.09,24.72-7.17-3.45-8.81-11.54-14.38-17-4.63,2.35-6.1,6.93-8.38,10.59-6.1,9.8-14.52,14.84-26.57,14.17-3.42-3.64-5.68-7.75-6.84-12.93-3.14-14.12-5.3-15.75-20.2-17.78-1.78-.24-3.58-.42-5.69-.66-6.2,5.95-9.3,13.63-11.75,21.41-1.73,5.48-4.89,8.61-10.16,9.96-8.8,2.25-16.91,6.72-26.51,6.45-8.23-.23-14.16-3.57-18.4-10.05-5.08-7.75-8.65-16.22-8.87-25.66-.18-7.97-2.68-15.12-5.89-22.34-3.71-8.34-6.64-17.06-9.44-25.76-1.92-5.96-4.91-10.44-10.63-13.52-11.76-6.32-19.2-16.77-25.29-28.28-9.41-17.79-5.93-38.4,8.83-52.69.96-.93,1.84-1.95,2.93-3.11-6.46-17.02-7.08-34.82-7.76-53.27,2.44-1.2,4.79-2.36,7.13-3.51.28-.8.86-1.63.79-2.4-1.54-17.03.81-33.8,3.57-50.51.44-2.64,1.12-6.02,2.94-7.49,4.64-3.73,4.7-8.59,5.04-13.62,1.17-16.99,5.45-33.39,9.63-49.79,1.19-4.68,2.16-9.91,8.93-10.56,1.47-.14,2.71-3.36,3.94-5.24,19.25-29.61,39.48-58.47,64.21-83.87,6.36-6.53,12.94-12.85,21.14-17.43Zm386.82,270.37c-1.5,1.65-2.62,2.83-3.69,4.07-7.18,8.27-13.59,17.39-21.67,24.67-18.12,16.31-37.65,30.22-62.59,35.11-27.77,5.45-55.19,12.66-82.94,18.21-9.43,1.89-14.67,6.92-17.54,15.14-1.95,5.56-2.96,11.46-4.26,17.23-.17.77.4,1.7.78,3.14,2.03.95,4.41,2.07,5.99,2.82,7.7-4.17,14.41-8.09,21.39-11.47,4.67-2.26,8.93-.99,12.11,3.01,1.41,1.77,2.46,3.84,3.49,5.88,1.84,3.63,3.54,7.32,5.62,11.66,5.21-2.76,9.93-5.45,14.81-7.8,5.64-2.71,8.24-1.9,11.7,2.96,5.3,7.45,6.69,15.89,6.02,24.73-.45,5.88,1.17,10.83,5.32,14.93,2.9,2.86,5.94,5.57,8.53,7.98,3.49,0,6.23.08,8.96-.01,16.92-.58,33.83-1.26,50.76-1.77,10.06-.31,20.13-.26,30.19-.62,2.55-.09,5.06-1.15,7.32-1.7,3.24-27.05,3.18-155.61-.28-168.15Zm-259.36-222.47c.28.3.52.82.84.87,8.58,1.32,17.15,2.63,25.74,3.86,15.6,2.23,30.11,7.32,43.51,15.73,11.22,7.04,22.67,13.71,34.94,21.11,6.2-2.52,13.25-4.64,19.55-8.11,12-6.6,23.58-13.95,35.31-21.03,12.59-7.61,23.93-16.84,34.4-27.12,1.82-1.78,3.22-3.99,5.12-6.38-3.12-1.95-5.34-3.55-7.74-4.79-14.99-7.74-30.02-15.38-45.03-23.08-29.58-15.18-61.05-24.24-93.91-28.61-4.84-.64-9.94-1.61-14.65.32-11.71,22.54-23.3,44.82-34.87,67.11-1.05,2.03-2.02,4.1-2.94,6.19-.36.82-.53,1.74-.65,2.63-.05.41.24.87.37,1.31Zm-32.3,33.51c2.48-6.03,4.64-12.56,7.74-18.59,9.83-19.08,19.87-38.05,30.13-56.91,7.2-13.23,14.78-26.25,19.91-40.48.75-2.07,1.74-4.22-.99-6.73-13.7-.11-27.7,1.97-41.02,6.8-28.39,10.29-55.64,23.19-81.88,38.13-5.46,3.11-11.06,6.34-14.46,11.52,6.4,13.15,12.11,26.13,18.89,38.51,7.1,12.96,8.42,27.73,13.38,41.16,15.98-4.44,31.28-8.69,48.31-13.42Zm-53.89,246.37c3.19-.44,5.91-.49,8.45-1.21,14.32-4.05,27.98-2.51,41.38,3.85,8.25,3.92,16.96,6.85,25.2,10.78,6.15,2.94,12.2,6.32,17.73,10.29,10.86,7.82,19.33,18.13,27.75,28.41,3.14,3.84,5.86,8.03,10.28,10.26,1.21-.73,2.11-1.05,2.71-1.66,5.34-5.43,7.17-12.59,9.49-19.5,2.47-7.35,4.7-14.75,9.81-20.98,3.41-4.17,6.98-6.8,12.68-6.66,5.4.14,10.81-.64,16.4-4.05-4.06-6.1-8.6-11.02-13.85-15.36-18.51-15.31-39.09-26.94-61.96-34.36-2.99-.97-6.29-1.21-9.46-1.33-5.03-.2-10.08-.15-15.12.01-31.19.99-59.19,10.36-83.09,32,.48,2.81.99,5.84,1.61,9.5Zm351.13-140.48c-2.73-39.91-41.24-115.52-65.98-133.51-8.42,6.26-16.82,12.53-25.24,18.76-8.7,6.43-18.72,11.02-27.06,18.44,1.25,1.7,1.87,2.89,2.79,3.76,24.67,23.16,43.04,50.71,56.95,81.39.72,1.59,2.06,2.89,3.07,4.28,18.23,3.13,36.05,6.89,55.48,6.88Zm-282.06-107.59c6.69,1.92,13.12.71,19.4.24,13.06-.99,25.51,1.36,37.83,5.22,9.86,3.09,14.45,11.19,11.8,21.18-.94,3.52-2.21,6.98-3.6,10.36-7.12,17.38-15.27,34.26-25.03,50.33-1.58,2.6-2.99,5.3-4.85,8.63,5.77,2.55,10.78,4.71,15.74,6.97,4.93,2.26,9.8,4.63,14.6,6.9,5.06-3.04,9.59-5.3,13.63-8.26,21.07-15.43,41.9-31.18,60.15-49.99,1.82-1.87,3.3-4.06,4.82-5.94-10.43-14.37-37.08-33.8-66.48-48.76-13.4-6.82-53.48-16.18-69.4-16.09-3.23,5.96-9.16,10.94-8.6,19.2Zm225.02,129.89c-11.15-46.86-36.51-83.12-71.8-113.61-2.77,1.12-5.34,1.98-7.73,3.19-2.23,1.13-4.27,2.63-6.35,3.95,6.29,10.98,16.79,18.26,19.22,30.78-4.33,7.31-10.79,12.55-16.67,18.24-5.91,5.72-12.32,10.93-18.54,16.33-6.03,5.23-13.26,9.11-18.67,15.27,8.84,7.29,17.37,13.46,24.82,20.73,5.32,5.19,10.63,8.15,18.15,7.47,6.37-.58,12.8-.44,19.21-.67,15.08-.54,30.15-1.14,45.23-1.65,4.06-.14,8.14-.02,13.14-.02ZM91.07,198.21c.49.34.97.67,1.46,1.01,2.02-2.22,3.94-4.53,6.07-6.62,3.9-3.83,7.75-7.76,11.96-11.23,3.68-3.03,6.49-2.98,9.77.17,10.19,9.83,20.21,19.83,30.22,29.83,6.71,6.7,11.72,15.08,19.88,20.88,5.36-2.04,10.61-3.64,15.49-5.99,5.22-2.5,11.71-2.15,16.12-6.61-1.61-15.44-2.69-30.46-4.89-45.32-1.46-9.88-3.83-19.74-7.04-29.2-3.07-9.04-7.49-17.65-11.81-26.21-2.78-5.52-5.48-11.35-11.28-15.48-8.75,6.97-15.83,14.63-22.86,22.4-18.78,20.78-33.62,44.48-50.06,66.99-1.2,1.65-2.03,3.57-3.04,5.37Zm387.95,203.61c3.53-.61,6.19-.87,8.74-1.55,7.39-1.97,12.3-7.73,18.12-12.1,17.59-13.18,30.17-30.55,41.15-49.23,1.35-2.31,2.57-5.05,2.7-7.65.65-12.35.4-24.65-4.32-36.78-10.88-1.9-21.62-3.82-32.39-5.61-1.22-.2-2.58.37-3.73.56-.21.73-.52,1.2-.42,1.56.71,2.62,1.25,5.33,2.32,7.8,6,13.84,1.49,17.86-11.69,17.64-13.29-.22-26.59-.03-39.88.16-2.98.04-6.37-.79-8.98,2.29,5.49,13.5,11.58,26.76,16.28,40.48,4.71,13.73,8.03,27.94,12.1,42.42Zm-206.69-112.17c20.35-22.33,52.12-78.04,58.16-102.12-6.88-3.52-14.35-5.14-22.18-4.8-25.62,1.13-51.31,2.03-76.32,8.43-6.47,1.66-13.42,2.5-19.24,6.6.8,6.78,1.53,13.03,2.33,19.88,3.42.19,6.09.53,8.74.45,6.87-.21,13.73-.78,20.61-.9,13.15-.24,17.03,3.16,18.58,16.29.37,3.15.28,6.44-.15,9.58-1.06,7.7-2.47,15.36-3.71,23.04-1.14,7.06-2.99,14.04-3.07,21.97,6.06.59,11.44,1.12,16.25,1.59Zm-196.8,187.8c4.71,12.76,9,25.25,13.95,37.47,3.12,7.7,6.28,15.2,5.96,23.73-.08,2.24.47,4.56,1.11,6.74.96,3.3,3.06,5.75,6.72,5.91,4.1.18,8.27.41,12.3-.17,7.13-1.04,14.18-2.68,21.14-4.05,2.27-6.34,3.82-12.62,6.67-18.24,6.82-13.46,14.29-26.59,21.41-39.89,2.96-5.52,6.37-10.9,7.38-18.44-13.25.16-24.11-5.44-34.63-11.78-9.87,8.47-14.6,20.89-25.49,26.75-10.55-2.88-12.41-13.89-19.98-18.74-5.08,3.29-9.99,6.47-16.53,10.71Zm56.43-197.92c14.97-7.55,28.38-14.32,42.36-21.37-1.75-3.28-2.79-6.38-4.75-8.72-9.39-11.24-18.6-22.68-28.72-33.25-6.82-7.13-13.65-14.6-22.66-19.74-5.98,4.37-9.81,10.14-13.96,15.51-13.52,17.46-25.11,36.05-31.81,57.3-2.28,7.22-2.05,7.54,6.33,11.88,8.18-7.64,13.29-18.43,22.94-23.98,13.01,4.11,21.25,13.6,30.27,22.36Zm300.58,61.76c-15.26-26.92-38.11-45.35-62.04-63.17-4.75,3.55-9.92,5.39-13.16,10.38,8.76,8,18.7,14.02,25.27,24.52-7.34,23.6-20.82,43.26-39.29,60.1,3.11,2.71,5.55,4.73,7.88,6.88,6.21,5.72,12.74,5.87,19.97,1.85,12.77-7.09,25.86-13.61,38.49-20.93,8.65-5.01,16.52-11.22,22.87-19.64Zm-54.43,56.54c5.26,6.06,10.17,11.43,14.75,17.08,4.06,5,8.94,6.95,15.45,6.88,20-.2,38.68-5.85,57.11-12.82.74-.28,1.19-1.3,2.2-2.47-4.11-27.17-11.33-53.87-22.25-79.55-.53-1.26-1.24-2.44-1.84-3.66-3.12-6.29-7.8-8.54-15.45-5.32,1.96,3.22,3.87,6.16,5.59,9.21,3.36,5.95,6.69,11.91,9.88,17.94,2.67,5.05,1.76,9.35-2.38,13.57-8.41,8.56-17.73,15.8-28.41,21.24-8.95,4.56-18,8.93-26.97,13.46-2.37,1.2-4.6,2.67-7.66,4.47Zm-123.78,65.96c-11.29-9.41-5.2-22.25-8.04-33.27-14.56-3.91-28.2-2.6-41.14,3.01-2.63,6.11-4.48,11.84-7.46,16.91-2.98,5.07-7.88,9.07-10.49,14.27-2.81,5.61-3.57,12.21-5.89,18.11-3.83,9.75-8.23,19.27-12.29,28.93-.27.63.31,1.62.6,2.91h6.64c1.27-4.72,2.2-9.16,3.7-13.4,1.4-3.97,4.51-5.73,8.68-5.03,3.12.52,6.13,1.75,9.2,2.64,2.96.86,5.94,1.68,9.19,2.6,3.32-5.65,6.23-10.78,9.31-15.8,3.37-5.48,7.21-10.57,12.8-14.08,11.51,1.19,12.74,13.28,19.45,19.11q11.34-8.71,22.86-8.83c.79,0,1.58-.63,2.99-1.24.36-1.77.8-3.92,1.2-5.93-6.29-6.1-14.42-6.91-21.32-10.91Zm-97.7-148.39c9.23-4.95,14.62-.7,19,6.1.99,1.54,1.87,3.15,2.84,4.7,4.46,7.13,6.26,15.13,7.82,23.25.48,2.53,1.48,4.95,2.47,8.17,6.72-2.11,13.12-2.43,18.51-6.47,2.61-28.13.59-55.63-5.88-82.87-17.11,3.21-47.3,16.15-58.37,25.01,4.21,6.84,8.47,13.75,13.62,22.11Zm-28.98,97.99c.4,23.59,7.89,33.7,30.55,38.66,10.05,2.2,18.68-1.59,25.4-9.87,9.01-11.1,10.03-24.13,9.73-37.45-.13-5.9-3.87-10.59-8.8-13.13-7.65-3.93-15.82-6.87-23.85-10.03-1.61-.64-3.7-.85-5.37-.45-10.01,2.43-19.35,6.08-23.12,16.93-2.07,5.96-3.6,12.11-4.55,15.34Zm242.83-91.89c-14.04-13.65-29.18-23.78-45.63-31.83-8-3.92-15.81-9.01-25.45-9.32-2.48,4.68-7.05,7.61-7.66,13.61,6.14,1.45,11.83,2.92,17.58,4.1,6.82,1.41,10.03,6.27,11.18,12.36.56,2.92-.18,6.48-1.4,9.28-4.56,10.43-9.6,20.66-14.37,31-1.07,2.31-3.48,4.37-1.53,8.12,8.49,2.78,17.5,5.72,26.37,8.62,4.44-4.16,8.03-8.42,12.44-11.5,12.34-8.62,20.52-20.45,28.47-34.45Zm-263.41-46.85c-14.53,12.21-36.21,46.4-40.37,63.58,4.75,2.81,9.67,5.72,14.85,8.78,7.72-8.5,12.59-18.73,22.78-23.83,5.53,4.04,10.96,8.01,16.63,12.15,8.46-7.02,18.55-10.32,26.69-17.61-11-17.55-21.47-34.46-40.58-43.06Zm305.07,267c5.7-8.96,11.67-16.49,15.46-25,2.25-5.06,1.17-11.65,1.32-17.55.03-1.02-1.24-2.08-1.94-3.17-8.22,1.68-12.53,9.21-19.23,11.99-9.83-6.7-8.31-18.33-13.07-26.8-9.56,1.28-15.67,8.33-23.5,11.54-4.76-2.52-9.11-5.03-13.64-7.15-4-1.88-7.16-.85-9.19,3.13-6.06,11.87-11.32,24.03-11.65,37.66-.04,1.56.84,3.15,1.51,5.43,10.36-8.18,12.41-22.71,25.23-27.27,8.2,10.9,5.13,24.95,11.43,36.72,10.69-5.87,12.88-18.36,22.05-24.61,9.41,5.35,9.03,16.55,15.23,25.08ZM72.87,395.07c5.56,7.85,10.53,14.87,15.66,22.12,4.41-1.47,8.6-3.73,12.93-4.08,4.65-.38,9.44,1.04,14.04,1.66.73-6.21.62-11.81,2.18-16.9,1.7-5.58,4.37-11.07,7.67-15.89,2.95-4.3,7.32-7.62,10.71-11.01-6.9-13.75-17.11-23.14-28.68-31.19-10.32,10.39-29.25,40.84-34.5,55.3Zm130.48-145.63c5.41,2.89,8.08,6.95,8.94,12.15.6,3.59.79,7.24,1.13,10.87,1.15,12.24,4.12,24.09,6.87,35.79,9.44,1.04,9.67.98,12.22-5.27,6.55-16.07,12.09-32.44,14.72-49.68,1.02-6.7,2.19-13.38,3.46-21.15-25.58-1.77-48.88,2.78-71.56,11.79.75,4.65,1.87,8.49,6.58,10.41,5.88-1.63,11.95-3.31,17.64-4.89Zm81,108.92c5.5-17.12,17.79-29.73,22.06-47.15-18.6-5.39-36.33-10.58-55.34-10.94-1.62,3.06-3.05,5.36-4.05,7.83-.46,1.14-.08,2.61-.08,4.4,7.83,3.48,18.89,2.85,20.49,15.1-3.54,8.82-7.33,18.05-10.92,27.36-.74,1.92-2.08,4.21,1.07,6.8,8.29-1.05,17.24-2.19,26.75-3.4Zm-199.33,77.98c-.75-12.39-5.42-23.01-15.08-31.03-6.92-5.74-17.92-5.16-22.05,1.29-5.24,8.19-8.57,17.19-7.79,27.16.2,2.62.8,5.61,2.29,7.65,5.75,7.87,12.99,13.94,22.45,17.21,4.94,1.7,8.92.67,12.68-2.5,6.17-5.19,7.72-12.13,7.5-19.78Zm105.41,73.07c-4.58,7.94-5.77,10.9-4.17,15.33,2.61,7.19,5.84,14.15,8.64,20.82,5.72.36,8.52-2.67,10.82-6.12,3.78-5.68,7.16-11.63,10.96-17.3,1.66-2.48,3.92-4.56,5.86-6.77,9,5.2,8.93,15.47,15.21,22.08,9.45-8.33,4.1-20.21,8.09-29.44-3.62-7.44-3.89-16.57-11.09-22.89-8.25,9.03-12.95,19.27-16.39,29.48-11.12,4.49-18.76-4.8-27.93-5.18Zm-12.45-136.64c-1.12-13.35-1.97-24.6-3.1-35.82-.22-2.17-1.41-4.28-2.34-6.34-.55-1.22-1.45-2.27-1.83-2.85-14.55,2.68-30.05,10.83-39.11,20.51,4.42,6.04,8.93,12.2,13.63,18.63,11.15-2.68,20.73,2.28,32.75,5.87Zm43.21-49.1c-.13,7.49-.34,15.1-.35,22.7,0,1.7.5,3.49,1.15,5.09,2.36,5.8,4.88,11.53,7.62,17.95,2.71-.92,5.54-1.87,8.77-2.96.82-13.54,9.66-24.34,11.55-37.14-10.75-5.48-16.32-6.57-28.74-5.63Zm-114.73,145.03c2.17-1.85,4.05-3.07,5.43-4.71,5.27-6.26,10.38-12.65,15.34-18.73-8.03-19.28-17.95-22.73-32.1-11.42.31,4.35,1.31,8.95.82,13.39-1.05,9.4,4.1,15.16,10.51,21.48Zm-56.94-120.87c-2.08,11.77,1.53,22.76,2.32,33.92.18,2.58,1.96,4.37,4.36,4.29,1.97-.07,4.89-.87,5.67-2.29,4.48-8.21,9.22-16.34,12.97-25.26-7.85-6.14-15.66-10.05-25.33-10.66Zm219.38,188.11c2.33-2.69,3.85-3.81,4.51-5.31,3.33-7.67,3.91-15.79,3.28-24.01-.13-1.74-.86-3.53-1.66-5.12-3.94-7.84-10.39-8.4-15.78-1.31-1.62,2.14-3.35,4.5-3.96,7.01-.59,2.44-.65,5.67.51,7.76,3.68,6.67,8.03,12.97,13.11,20.98Zm-79.91-160.91c.31,3.03-.1,5.23.8,6.52,2.73,3.94,5.97,7.53,9.22,11.51,5.21-4.55,9.58-8.55,14.16-12.29,4.8-3.93,4.47-8.32,1.91-13.77-5.62,1.53-10.92,2.89-16.15,4.44-3.01.9-5.93,2.12-9.94,3.58Zm-127.86-91c-4.29,9.91-5.85,25.36-3.39,35.66,5-9.8,9.65-18.93,14.29-28.02-2.97-4.17-6.04-7.19-10.89-7.65Zm15.69-73.09c-4.31,5.18-4.31,11.3-4.71,17.37,3.68-4.56,7.95-8.68,9.19-14.65-1.79-1.09-2.92-1.77-4.48-2.72Z" style="stroke-width: 0px;"/>
    <path d="m151.76,415.3c4.15-.16,7.83,1.41,10.37,4.96,2.9,4.06,5.44,8.35,5.28,13.64-.14,4.8-4.65,8.54-9.17,7.58-7.25-1.53-15.52-13.06-14.82-20.67.3-3.3,3.66-5.59,8.34-5.51Z" style="stroke-width: 0px;"/>
    <path d="m65.89,450.79c-.87-.26-1.88-.31-2.57-.81-5.45-3.96-8.75-9.32-9.23-16.04-.21-2.95,1.82-5.51,4.61-6.14,2.46-.55,6.05-.78,7.67.59,4.22,3.54,7.2,8.27,7.16,14.21-.03,4.16-3.99,8.37-7.64,8.18Z" style="stroke-width: 0px;"/>
  </g>
</svg>